<svg width="62" height="45" viewBox="0 0 62 45" fill="none" xmlns="http://www.w3.org/2000/svg">
<path d="M49.3334 14.0608C46.8632 5.71583 39.3911 0 30.7499 0C22.0998 0 14.6365 5.71583 12.1663 14.0608C5.42386 14.2761 0 19.9381 0 26.8653C0 33.936 5.63484 39.6878 12.5531 39.6878H15.1552C15.164 39.6878 15.1727 39.6878 15.1727 39.6878C15.454 39.6878 21.4757 39.6878 21.4845 39.6878C22.3547 39.6878 23.0668 38.9699 23.0668 38.0726C23.0668 37.1843 22.3547 36.4575 21.4845 36.4575C18.1967 36.4575 16.2804 36.4575 15.1552 36.5741V36.4575H12.5531C7.3754 36.4575 3.16465 32.1594 3.16465 26.8653C3.16465 21.5802 7.3754 17.2821 12.5531 17.2821C12.7817 17.2821 13.0102 17.3 13.2388 17.318C14.0124 17.3718 14.7332 16.8514 14.909 16.0707C16.632 8.51542 23.1459 3.23029 30.7499 3.23029C38.3538 3.23029 44.8677 8.51542 46.5907 16.0797C46.7665 16.8603 47.4874 17.3808 48.2609 17.3269C48.4807 17.309 48.7093 17.291 48.9466 17.291C54.1243 17.291 58.3351 21.5891 58.3351 26.8743C58.3351 32.1684 54.1243 36.4664 48.9466 36.4664H46.3358V36.5831C45.2106 36.4664 43.2942 36.4664 40.0065 36.4664C39.1274 36.4664 38.4241 37.1933 38.4241 38.0816C38.4241 38.9789 39.1274 39.6967 40.0065 39.6967C40.0153 39.7057 46.0369 39.6967 46.3182 39.6967C46.327 39.6967 46.3358 39.6967 46.3358 39.6967H48.9466C55.8737 39.6967 61.4997 33.945 61.4997 26.8743C61.4909 19.9381 56.0759 14.2761 49.3334 14.0608Z" fill="#5586BA"/>
<path d="M38.6683 27.5834C38.9496 27.8077 39.2837 27.9064 39.6177 27.9064C40.1012 27.9064 40.5759 27.6821 40.8836 27.2604C41.411 26.5515 41.2704 25.5376 40.5759 24.9992L31.7061 18.1797C31.6973 18.1707 31.6885 18.1707 31.6885 18.1617C31.6621 18.1438 31.6358 18.1258 31.6094 18.1079C31.6006 18.0989 31.5918 18.0989 31.5742 18.0899C31.5479 18.072 31.5127 18.054 31.4863 18.0361H31.4775C31.4072 18.0002 31.3457 17.9733 31.2665 17.9464C31.2578 17.9464 31.249 17.9374 31.2402 17.9374C31.2138 17.9284 31.1874 17.9194 31.1611 17.9105C31.1435 17.9015 31.1259 17.9015 31.0995 17.8925C31.0732 17.8835 31.0468 17.8835 31.0292 17.8746C31.0028 17.8746 30.9852 17.8656 30.9589 17.8656C30.9325 17.8656 30.9149 17.8566 30.8885 17.8566C30.8534 17.8566 30.8182 17.8477 30.7743 17.8477C30.7655 17.8477 30.7567 17.8477 30.7479 17.8477C30.7391 17.8477 30.7215 17.8477 30.7127 17.8477C30.6776 17.8477 30.6424 17.8477 30.6072 17.8566C30.5809 17.8566 30.5633 17.8656 30.5369 17.8656C30.5105 17.8656 30.493 17.8746 30.4666 17.8746C30.4402 17.8835 30.4139 17.8835 30.3875 17.8925C30.3699 17.8925 30.3523 17.9015 30.3347 17.9105C30.3084 17.9194 30.2732 17.9284 30.2468 17.9374C30.238 17.9374 30.238 17.9374 30.2292 17.9464C30.1589 17.9733 30.0886 18.0002 30.0183 18.0361C30.0095 18.0361 30.0095 18.0361 30.0007 18.0451C29.9743 18.063 29.9479 18.081 29.9216 18.0899C29.904 18.0989 29.8952 18.1079 29.8776 18.1168C29.8512 18.1348 29.8337 18.1527 29.8073 18.1617C29.7985 18.1707 29.7897 18.1707 29.7809 18.1797L20.9111 24.9992C20.2078 25.5376 20.076 26.5515 20.5946 27.2604C21.1221 27.9692 22.1066 28.1128 22.8099 27.5744L29.148 22.7021V43.3849C29.148 44.2822 29.86 45.0001 30.7303 45.0001C31.6094 45.0001 32.3126 44.2822 32.3126 43.3849V22.72L38.6683 27.5834Z" fill="#5586BA"/>
</svg>
